<svg width="236" height="236" viewBox="0 0 236 236" fill="none" xmlns="http://www.w3.org/2000/svg">
<g filter="url(#filter0_d_1_14)">
<path d="M67.6087 1.36032C66.6751 2.18142 66.1377 3.36284 66.1321 4.60609L65.896 56.9652C65.8835 59.7177 63.6486 61.9425 60.8961 61.9425H36.7174C4.7562 61.9425 5.60291 61.8541 4.49102 64.5687C3.82341 66.2156 4.22351 68.2626 5.47032 69.3326C6.31471 70.1328 7.87323 70.1794 36.1406 70.3119L60.9347 70.3855C63.6903 70.3937 65.9199 72.6299 65.9199 75.3855V152.623C65.9199 155.376 63.6951 157.611 60.9426 157.623L8.5835 157.859C7.34025 157.865 6.15883 158.402 5.33773 159.336C3.60243 161.25 3.60243 163.076 5.33773 164.812C6.16435 165.638 7.28549 166.103 8.45451 166.103H60.8961C63.6486 166.103 65.8835 168.327 65.896 171.08L66.1321 223.441C66.1377 224.685 66.6751 225.866 67.6087 226.687C69.3882 228.29 71.2142 228.378 72.9053 226.91C73.6973 226.232 74.1566 225.244 74.1644 224.201L74.5616 171.276C74.5822 168.535 76.8054 166.322 79.5463 166.313L118.356 166.196L157.059 166.117C159.824 166.112 162.069 168.352 162.069 171.117V195.263C162.069 227.269 161.98 226.422 164.695 227.536C166.43 228.248 168.524 227.759 169.636 226.334C170.527 225.222 170.527 224.598 170.527 195.663V171.107C170.527 168.346 172.765 166.107 175.527 166.107H200.083C229.283 166.107 229.639 166.107 230.797 165.172C231.776 164.416 231.953 163.881 231.953 162.146C231.953 160.455 231.73 159.831 230.797 158.94C230.052 158.254 229.077 157.87 228.063 157.866L175.504 157.628C172.751 157.615 170.527 155.381 170.527 152.628V75.3855C170.527 72.6299 172.756 70.3937 175.512 70.3855L200.306 70.3119C228.883 70.1794 230.129 70.1328 231.02 69.3326C231.955 68.4883 232.311 65.6387 231.688 63.9476C230.932 61.9448 230.576 61.9448 199.683 61.9448H175.522C172.761 61.9448 170.522 59.7062 170.522 56.9448V4.4771C170.522 3.30808 170.058 2.18694 169.231 1.36032C167.184 -0.64249 163.755 -0.0632842 162.599 2.51874C162.199 3.36313 162.064 11.1534 162.064 32.7866V56.9425C162.064 59.7039 159.826 61.9425 157.064 61.9425H79.3754C76.614 61.9425 74.3754 59.7039 74.3754 56.9425V4.4771C74.3754 3.30808 73.911 2.18694 73.0844 1.36032C71.3468 -0.377309 69.5231 -0.377309 67.6087 1.36032ZM162.065 114.023C162.065 114.023 162.064 114.023 162.064 114.024V152.645C162.064 155.406 159.826 157.645 157.064 157.645H79.3754C76.614 157.645 74.3754 155.406 74.3754 152.645V75.4003C74.3754 72.6389 76.614 70.4003 79.3754 70.4003H157.066C159.828 70.4003 162.066 72.6389 162.066 75.4003V114.021C162.066 114.022 162.066 114.023 162.065 114.023Z" fill="#0B4CE4"/>
<path d="M112.61 94.1689C102.685 97.0184 96.1853 107.212 97.8765 117.228C100.77 134.144 121.424 140.42 133.308 128.045C142.745 118.163 139.584 101.692 127.077 95.4599C124.006 93.9456 123.427 93.813 119.198 93.7246C116.351 93.6339 113.901 93.7688 112.61 94.1689ZM123.162 102.848C125.744 104.006 127.881 106.053 129.126 108.547C130.017 110.238 130.238 111.352 130.238 114.023C130.238 116.693 130.015 117.807 129.126 119.498C126.944 123.771 123.206 125.998 118.174 126.042C115.681 126.042 114.569 125.818 112.745 124.883C103.799 120.431 103.799 107.612 112.745 103.162C115.639 101.692 120.312 101.559 123.162 102.848Z" fill="#0B4CE4"/>
<path d="M18.5107 12.7096C17.7547 13.0213 16.908 13.8215 16.5963 14.4891C15.3937 17.1595 15.6612 17.6503 23.0513 25.0847L26.5368 28.5922C28.4746 30.5423 28.4746 33.6909 26.5368 35.641L23.0513 39.1486C15.5728 46.6713 15.3053 47.1621 16.7312 49.9209C17.5756 51.5237 19.8482 52.3704 21.6719 51.7004C22.3837 51.4329 25.9009 48.274 29.5506 44.6685L32.5704 41.6487C34.5183 39.7007 37.675 39.6954 39.6295 41.6368L42.6817 44.6685C46.2872 48.2298 49.6694 51.3887 50.2486 51.7004C53.2307 53.1682 56.8363 49.6534 55.6336 46.4038C55.3661 45.7804 52.2514 42.3075 48.6459 38.6601L45.6261 35.6403C43.6781 33.6923 43.6728 30.5356 45.6142 28.5811L48.6459 25.529C52.2514 21.9234 55.3661 18.4505 55.6336 17.8271C56.8363 14.5775 53.2307 11.0627 50.2486 12.5305C49.6694 12.8422 46.2872 16.0034 42.6817 19.5624L39.6289 22.5947C37.6746 24.5359 34.5184 24.5308 32.5704 22.5835L29.5506 19.5647C24.5323 14.5854 22.1025 12.5411 20.6822 12.155C20.3411 12.0623 19.9857 12.1336 19.6534 12.2541C19.3342 12.3698 18.9149 12.5326 18.5107 12.7096Z" fill="#0B4CE4"/>
<path d="M100.814 12.5328C99.3908 13.112 98.4115 14.7589 98.4115 16.4942C98.4115 17.8736 99.0791 18.7204 105.399 25.0847L108.885 28.5923C110.823 30.5423 110.823 33.691 108.885 35.641L105.399 39.1486C99.2559 45.3361 98.4115 46.3596 98.4115 47.6506C98.4115 49.5651 99.0349 50.677 100.682 51.5237C103.041 52.7263 104.02 52.1029 111.098 45.0244C114.792 41.3305 117.953 38.3484 118.221 38.3484C118.488 38.3484 121.647 41.3305 125.344 45.0244C132.42 52.1006 133.399 52.724 135.76 51.5237C137.407 50.6793 138.03 49.5651 138.03 47.6506C138.03 46.3596 137.184 45.3361 131.043 39.1486L127.557 35.641C125.619 33.691 125.619 30.5423 127.557 28.5923L131.043 25.0847C137.186 18.8971 138.03 17.8736 138.03 16.5826C138.03 14.6682 137.407 13.5563 135.76 12.7096C133.401 11.507 132.422 12.1304 125.344 19.2088C121.65 22.9028 118.488 25.8849 118.221 25.8849C117.998 25.8849 114.795 22.9028 111.098 19.2088C104.243 12.3537 103.041 11.5535 100.814 12.5328Z" fill="#0B4CE4"/>
<path d="M195.584 12.7538C186.37 14.7566 179.426 23.3912 179.426 32.7842C179.471 38.5252 181.385 43.0216 185.614 47.2947C188.775 50.4118 191.846 52.1471 195.807 52.9915C207.203 55.3944 218.331 47.7832 220.422 36.1664C222.337 25.3941 214.682 14.5775 203.73 12.5747C200.436 11.9536 199.055 11.9978 195.584 12.7538ZM203.907 21.2558C208.492 22.5911 212.365 27.8877 212.365 32.7842C212.365 35.4546 211.03 38.7927 209.115 40.8862C206.312 43.9567 204.351 44.8034 200.125 44.8034C197.008 44.8034 196.251 44.6243 194.16 43.4682C190.155 41.2863 187.973 37.504 187.929 32.7842C187.884 27.7993 191.222 23.0353 195.986 21.3884C198.922 20.3673 200.836 20.3231 203.907 21.2558Z" fill="#0B4CE4"/>
<path d="M16.4195 94.7039C14.9052 95.5041 14.2818 96.6183 14.2818 98.4886C14.2818 99.7796 15.1262 100.803 21.2695 106.991L24.7556 110.499C26.6932 112.449 26.6934 115.597 24.7562 117.547L21.2718 121.054C15.1285 127.242 14.2841 128.266 14.2841 129.557C14.2841 130.359 14.5074 131.383 14.7284 131.871C15.396 133.118 17.7105 134.141 19.1341 133.83C19.8459 133.697 23.0513 130.98 27.3687 126.842L30.8692 123.498C32.8337 121.621 35.9375 121.656 37.8587 123.577L41.2581 126.977C47.8899 133.565 48.1574 133.832 49.9369 133.832C52.384 133.832 53.8983 132.141 53.8983 129.515C53.8983 127.733 53.675 127.421 47.1316 120.834L43.8558 117.535C41.9235 115.59 41.9187 112.451 43.845 110.499L47.1339 107.167C53.6332 100.624 53.9007 100.268 53.9007 98.5328C53.9007 95.9065 52.3864 94.2154 49.9393 94.2154C48.1597 94.2154 47.8922 94.4829 41.2139 101.115L37.8381 104.469C35.8883 106.406 32.7405 106.406 30.7904 104.47L27.7711 101.471C20.1576 93.9456 19.0457 93.278 16.4195 94.7039Z" fill="#0B4CE4"/>
<path d="M185.212 94.3015C183.476 94.9691 182.541 96.3927 182.541 98.3955C182.541 100.354 182.585 100.443 189.308 107.209L192.574 110.496C194.511 112.446 194.511 115.594 192.574 117.544L189.308 120.831C182.765 127.419 182.541 127.731 182.541 129.512C182.541 132.139 184.056 133.83 186.503 133.83C188.282 133.83 188.55 133.562 195.228 126.93L198.609 123.549C200.555 121.603 203.707 121.596 205.663 123.532L206.668 124.527C216.505 134.232 217.305 134.765 219.887 133.43C221.534 132.585 222.158 131.471 222.158 129.557C222.158 128.266 221.311 127.242 215.17 121.054L211.685 117.547C209.747 115.597 209.747 112.448 211.685 110.498L215.17 106.991C222.47 99.6004 222.737 99.1561 221.714 96.4857C221.49 95.8623 220.69 95.0621 219.934 94.662C217.352 93.3268 216.284 93.9944 208.894 101.25L205.618 104.482C203.662 106.412 200.515 106.402 198.571 104.459L195.316 101.205C188.55 94.4806 187.17 93.5013 185.212 94.3015Z" fill="#0B4CE4"/>
<path d="M114.881 177.231C105.443 178.966 98.4557 186.58 97.6532 195.926C96.6738 207.678 106.379 218.183 118.219 218.183C130.059 218.183 139.763 207.634 138.784 195.926C137.937 185.821 129.838 177.854 119.554 177.052C118.086 176.919 115.995 177.008 114.881 177.231ZM122.003 185.954C125.209 186.889 128.679 190.315 129.794 193.656C133.222 204.028 122.494 213.242 112.701 208.345C108.74 206.343 106.513 203.049 106.113 198.597C105.757 194.812 106.869 191.83 109.763 188.983C113.234 185.465 117.151 184.53 122.003 185.954Z" fill="#0B4CE4"/>
<path d="M198.61 177.275C197.319 177.498 194.96 178.299 193.402 179.01C182.985 183.995 178.668 196.815 183.921 207.143C185.256 209.725 189.352 213.954 192.111 215.512C204.486 222.591 220.332 214.845 222.646 200.555C224.337 189.915 217.126 179.722 206.177 177.408C202.883 176.74 202.083 176.696 198.61 177.275ZM207.601 186.622C214.9 190.271 216.77 199.708 211.341 205.584C208.536 208.611 206.577 209.457 202.348 209.502C198.164 209.502 196.205 208.746 193.402 205.94C190.064 202.602 189.129 196.903 191.176 192.586C194.158 186.266 201.548 183.595 207.601 186.622Z" fill="#0B4CE4"/>
</g>
<defs>
<filter id="filter0_d_1_14" x="0.0362549" y="0.0570984" width="235.964" height="235.896" filterUnits="userSpaceOnUse" color-interpolation-filters="sRGB">
<feFlood flood-opacity="0" result="BackgroundImageFix"/>
<feColorMatrix in="SourceAlpha" type="matrix" values="0 0 0 0 0 0 0 0 0 0 0 0 0 0 0 0 0 0 127 0" result="hardAlpha"/>
<feOffset dy="4"/>
<feGaussianBlur stdDeviation="2"/>
<feComposite in2="hardAlpha" operator="out"/>
<feColorMatrix type="matrix" values="0 0 0 0 0 0 0 0 0 0 0 0 0 0 0 0 0 0 0.25 0"/>
<feBlend mode="normal" in2="BackgroundImageFix" result="effect1_dropShadow_1_14"/>
<feBlend mode="normal" in="SourceGraphic" in2="effect1_dropShadow_1_14" result="shape"/>
</filter>
</defs>
</svg>
