<svg width="228" height="228" viewBox="0 0 228 228" fill="none" xmlns="http://www.w3.org/2000/svg">
<path d="M63.6087 1.36033V1.36033C62.6751 2.18143 62.1377 3.36285 62.1321 4.6061L62.0083 32.2958L61.896 56.9652C61.8835 59.7178 59.6486 61.9425 56.8961 61.9425H32.7174C0.756196 61.9425 1.60291 61.8541 0.491016 64.5687C-0.176588 66.2156 0.22351 68.2626 1.47032 69.3327C2.31471 70.1329 3.87323 70.1794 32.1406 70.312L56.9347 70.3856C59.6903 70.3937 61.9199 72.6299 61.9199 75.3855V114.023V152.623C61.9199 155.376 59.6951 157.611 56.9426 157.623L32.2731 157.736L4.5835 157.859C3.34025 157.865 2.15883 158.402 1.33773 159.336V159.336C-0.397571 161.25 -0.397571 163.076 1.33773 164.812V164.812C2.16435 165.638 3.28549 166.103 4.45451 166.103H32.2731H56.8961C59.6486 166.103 61.8835 168.327 61.896 171.08L62.0083 195.749L62.1321 223.441C62.1377 224.685 62.6751 225.866 63.6087 226.687V226.687C65.3882 228.29 67.2142 228.378 68.9053 226.91V226.91C69.6973 226.232 70.1566 225.244 70.1644 224.201L70.3754 196.063L70.5616 171.276C70.5822 168.535 72.8054 166.322 75.5463 166.313L114.356 166.196L153.059 166.117C155.824 166.112 158.069 168.352 158.069 171.117V195.263C158.069 227.269 157.98 226.422 160.695 227.536C162.43 228.248 164.524 227.759 165.636 226.334C166.527 225.222 166.527 224.598 166.527 195.663V171.107C166.527 168.346 168.765 166.107 171.527 166.107H196.083C225.283 166.107 225.639 166.107 226.797 165.172C227.776 164.416 227.953 163.881 227.953 162.146C227.953 160.455 227.73 159.831 226.797 158.94V158.94C226.052 158.254 225.077 157.87 224.063 157.866L196.083 157.74L171.504 157.628C168.751 157.615 166.527 155.381 166.527 152.628V114.023V75.3855C166.527 72.6299 168.756 70.3937 171.512 70.3856L196.306 70.312C224.883 70.1794 226.129 70.1329 227.02 69.3327C227.955 68.4883 228.311 65.6387 227.688 63.9476C226.932 61.9448 226.576 61.9448 195.683 61.9448H171.522C168.761 61.9448 166.522 59.7062 166.522 56.9448V32.2981V4.47711C166.522 3.30809 166.058 2.18695 165.231 1.36033V1.36033C163.184 -0.642479 159.755 -0.0632731 158.599 2.51875C158.199 3.36314 158.064 11.1534 158.064 32.7866V56.9425C158.064 59.7039 155.826 61.9425 153.064 61.9425H114.221H75.3754C72.614 61.9425 70.3754 59.7039 70.3754 56.9425V32.2958V4.47711C70.3754 3.30809 69.911 2.18695 69.0844 1.36033V1.36033C67.3468 -0.377298 65.5231 -0.377298 63.6087 1.36033ZM158.065 114.023C158.065 114.023 158.064 114.023 158.064 114.024V152.645C158.064 155.406 155.826 157.645 153.064 157.645H114.221H75.3754C72.614 157.645 70.3754 155.406 70.3754 152.645V114.023V75.4004C70.3754 72.6389 72.614 70.4004 75.3754 70.4004H114.221H153.066C155.828 70.4004 158.066 72.6389 158.066 75.4004V114.021C158.066 114.022 158.066 114.023 158.065 114.023V114.023Z" fill="#192CD7"/>
<path d="M108.61 94.1689C98.6846 97.0184 92.1853 107.212 93.8765 117.228C96.7702 134.144 117.424 140.42 129.308 128.045C138.745 118.163 135.584 101.692 123.077 95.4599C120.006 93.9456 119.427 93.813 115.198 93.7246C112.351 93.6339 109.901 93.7688 108.61 94.1689ZM119.162 102.848C121.744 104.006 123.881 106.053 125.126 108.547C126.017 110.238 126.238 111.352 126.238 114.023C126.238 116.693 126.015 117.807 125.126 119.498C122.944 123.771 119.206 125.998 114.174 126.042C111.681 126.042 110.569 125.818 108.745 124.883C99.7988 120.431 99.7988 107.612 108.745 103.162C111.639 101.692 116.312 101.559 119.162 102.848Z" fill="#192CD7"/>
<path d="M14.5107 12.7096C13.7547 13.0213 12.908 13.8215 12.5963 14.4891C11.3937 17.1595 11.6612 17.6503 19.0513 25.0847L22.5368 28.5923C24.4746 30.5423 24.4746 33.691 22.5368 35.641L19.0513 39.1486C11.5728 46.6713 11.3053 47.1621 12.7312 49.921C13.5756 51.5237 15.8482 52.3704 17.6719 51.7005C18.3837 51.4329 21.9009 48.274 25.5506 44.6685L28.5704 41.6487C30.5183 39.7007 33.675 39.6954 35.6295 41.6368L38.6817 44.6685C42.2872 48.2298 45.6694 51.3888 46.2486 51.7005C49.2307 53.1683 52.8363 49.6534 51.6337 46.4038C51.3661 45.7804 48.2514 42.3075 44.6459 38.6601L41.6261 35.6403C39.6781 33.6923 39.6728 30.5357 41.6142 28.5811L44.6459 25.529C48.2514 21.9235 51.3661 18.4505 51.6337 17.8271C52.8363 14.5775 49.2307 11.0627 46.2486 12.5305C45.6694 12.8422 42.2872 16.0034 38.6817 19.5624L35.6289 22.5947C33.6746 24.5359 30.5184 24.5309 28.5704 22.5835L25.5506 19.5647C20.5323 14.5854 18.1025 12.5411 16.6822 12.155C16.3411 12.0623 15.9857 12.1336 15.6534 12.2541C15.3342 12.3698 14.9149 12.5326 14.5107 12.7096Z" fill="#192CD7"/>
<path d="M96.8144 12.5328C95.3908 13.112 94.4115 14.759 94.4115 16.4943C94.4115 17.8737 95.0791 18.7204 101.399 25.0847L104.885 28.5923C106.823 30.5423 106.823 33.691 104.885 35.641L101.399 39.1486C95.2559 45.3361 94.4115 46.3596 94.4115 47.6507C94.4115 49.5651 95.0349 50.677 96.6818 51.5237C99.0405 52.7263 100.02 52.1029 107.098 45.0244C110.792 41.3305 113.953 38.3484 114.221 38.3484C114.488 38.3484 117.647 41.3305 121.344 45.0244C128.42 52.1006 129.399 52.724 131.76 51.5237C133.407 50.6793 134.03 49.5651 134.03 47.6507C134.03 46.3596 133.184 45.3361 127.043 39.1486L123.557 35.641C121.619 33.691 121.619 30.5423 123.557 28.5923L127.043 25.0847C133.186 18.8972 134.03 17.8737 134.03 16.5826C134.03 14.6682 133.407 13.5563 131.76 12.7096C129.401 11.507 128.422 12.1304 121.344 19.2089C117.65 22.9028 114.488 25.8849 114.221 25.8849C113.998 25.8849 110.795 22.9028 107.098 19.2089C100.243 12.3537 99.0405 11.5535 96.8144 12.5328Z" fill="#192CD7"/>
<path d="M191.584 12.7538C182.37 14.7566 175.426 23.3913 175.426 32.7842C175.471 38.5252 177.385 43.0216 181.614 47.2947C184.775 50.4118 187.846 52.1471 191.807 52.9915C203.203 55.3944 214.331 47.7832 216.422 36.1665C218.337 25.3941 210.682 14.5775 199.73 12.5747C196.436 11.9536 195.055 11.9978 191.584 12.7538ZM199.907 21.2559C204.492 22.5911 208.365 27.8877 208.365 32.7842C208.365 35.4547 207.03 38.7927 205.115 40.8862C202.312 43.9567 200.351 44.8034 196.125 44.8034C193.008 44.8034 192.251 44.6243 190.16 43.4682C186.155 41.2863 183.973 37.504 183.929 32.7842C183.884 27.7993 187.222 23.0354 191.986 21.3884C194.922 20.3673 196.836 20.3231 199.907 21.2559Z" fill="#192CD7"/>
<path d="M12.4195 94.7039C10.9052 95.5041 10.2818 96.6183 10.2818 98.4886C10.2818 99.7796 11.1262 100.803 17.2695 106.991L20.7556 110.499C22.6932 112.449 22.6934 115.597 20.7562 117.547L17.2718 121.055C11.1285 127.242 10.2841 128.266 10.2841 129.557C10.2841 130.359 10.5074 131.383 10.7284 131.871C11.396 133.118 13.7105 134.141 15.1341 133.83C15.8459 133.697 19.0513 130.98 23.3687 126.842L26.8692 123.498C28.8337 121.621 31.9375 121.656 33.8587 123.577L37.2581 126.977C43.8899 133.565 44.1574 133.832 45.9369 133.832C48.384 133.832 49.8984 132.141 49.8984 129.515C49.8984 127.733 49.675 127.421 43.1316 120.834L39.8558 117.535C37.9235 115.59 37.9187 112.451 39.845 110.499L43.1339 107.167C49.6332 100.624 49.9007 100.268 49.9007 98.5328C49.9007 95.9065 48.3864 94.2154 45.9393 94.2154C44.1598 94.2154 43.8922 94.4829 37.2139 101.115L33.8381 104.469C31.8883 106.406 28.7405 106.407 26.7904 104.47L23.7711 101.471C16.1576 93.9456 15.0457 93.278 12.4195 94.7039Z" fill="#192CD7"/>
<path d="M181.212 94.3015C179.476 94.9691 178.541 96.3927 178.541 98.3955C178.541 100.354 178.585 100.443 185.308 107.209L188.574 110.496C190.511 112.446 190.511 115.594 188.574 117.544L185.308 120.831C178.765 127.419 178.541 127.731 178.541 129.512C178.541 132.139 180.056 133.83 182.503 133.83C184.282 133.83 184.55 133.562 191.228 126.93L194.609 123.549C196.555 121.603 199.707 121.596 201.663 123.532L202.668 124.527C212.505 134.232 213.305 134.765 215.887 133.43C217.534 132.585 218.158 131.471 218.158 129.557C218.158 128.266 217.311 127.242 211.17 121.054L207.685 117.547C205.747 115.597 205.747 112.448 207.685 110.498L211.17 106.991C218.47 99.6005 218.737 99.1562 217.713 96.4857C217.49 95.8623 216.69 95.0621 215.934 94.662C213.352 93.3268 212.284 93.9944 204.894 101.25L201.618 104.482C199.662 106.412 196.515 106.402 194.571 104.459L191.316 101.205C184.55 94.4806 183.17 93.5013 181.212 94.3015Z" fill="#192CD7"/>
<path d="M110.881 177.231C101.443 178.966 94.4557 186.58 93.6532 195.926C92.6738 207.678 102.379 218.183 114.219 218.183C126.059 218.183 135.763 207.634 134.784 195.926C133.937 185.821 125.838 177.854 115.554 177.052C114.086 176.919 111.995 177.008 110.881 177.231ZM118.003 185.954C121.209 186.889 124.679 190.316 125.794 193.656C129.222 204.028 118.494 213.242 108.701 208.345C104.74 206.343 102.513 203.049 102.113 198.597C101.757 194.812 102.869 191.83 105.763 188.983C109.234 185.465 113.151 184.53 118.003 185.954Z" fill="#192CD7"/>
<path d="M194.61 177.275C193.319 177.498 190.961 178.299 189.402 179.01C178.986 183.995 174.668 196.815 179.921 207.143C181.256 209.725 185.352 213.954 188.111 215.512C200.486 222.591 216.332 214.845 218.646 200.555C220.337 189.915 213.126 179.722 202.177 177.408C198.883 176.74 198.083 176.696 194.61 177.275ZM203.601 186.622C210.9 190.271 212.77 199.708 207.341 205.584C204.536 208.611 202.577 209.457 198.348 209.502C194.164 209.502 192.205 208.746 189.402 205.94C186.064 202.602 185.129 196.903 187.176 192.586C190.158 186.266 197.548 183.595 203.601 186.622Z" fill="#192CD7"/>
</svg>
